# xmcd
#
# Track frame offsets: 
#        150
#        19804
#        45122
#        66802
#        90606
#        109239
#        130526
#        150145
#        171382
#
# Disc length: 2671 seconds
#
# Revision: 0
# Processed by: cddbd v1.5.2PL0 Copyright (c) Steve Scherf et al.
# Submitted via: ExactAudioCopy v0.99pb4
#
DISCID=610a6d09
DTITLE=Howard Johnson - The Vision
DYEAR=1985
DGENRE=R&B
TTITLE0=Stand Up
TTITLE1=Knees
TTITLE2=So Tuff
TTITLE3=Outta My Head
TTITLE4=You've Got A Lot To Learn
TTITLE5=Show Me How
TTITLE6=All We Have Is Love
TTITLE7=Older Girl
TTITLE8=Stand Up (Special Remix Version)
EXTD=
EXTT0=
EXTT1=
EXTT2=
EXTT3=
EXTT4=
EXTT5=
EXTT6=
EXTT7=
EXTT8=
PLAYORDER=
